<?xml version="1.0" encoding="utf-8"?>
<svg version="1.1" id="Layer_1" x="0px" y="0px" viewBox="0 0 750 630.5" style="enable-background:new 0 0 750 630.5;" xmlns="http://www.w3.org/2000/svg">
  <style type="text/css">
	.st0{fill:none;}
	.st1{fill:url(#SVGID_1_);}
	.st2{fill:#09070C;}
	.st3{display:none;}
	.st4{display:inline;}
	.st5{fill:#141414;}
	.st6{fill:#CD00FF;}
	.st7{display:inline;fill:none;}
	.st8{fill:#0E0B11;}
	.st9{fill:#242424;}
	.st10{fill:#292929;}
	.st11{fill:#191919;}
	.st12{fill:#1C1C1C;}
	.st13{fill:#171717;}
	.st14{fill:#0F0F0F;}
	.st15{fill:#1A1A1A;}
	.st16{display:inline;fill:#242424;}
	.st17{display:inline;fill:#1C1C1C;}
	.st18{fill:#EBEBEB;}
	.st19{fill:#EDF4F4;}
	.st20{fill:#DBDBDB;}
	.st21{fill:#E3E3E3;}
	.st22{fill:#D6D6D6;}
	.st23{display:inline;fill:#0F0F0F;}
	.st24{fill:#E6E6E6;}
	.st25{fill:#E8E8E8;}
	.st26{fill:#F0F0F0;}
	.st27{fill:#E5E5E5;}
	.st28{fill:#1A1615;}
	.st29{fill:#0A0A0A;stroke:#000000;stroke-miterlimit:10;}
	.st30{fill:#B433FF;}
	.st31{display:inline;fill:#F5F5F5;stroke:#FFFFFF;stroke-miterlimit:10;}
	.st32{fill:#929493;}
	.st33{fill:#080808;stroke:#0D0A11;stroke-width:2;stroke-miterlimit:10;}
	.st34{stroke:#0D0B11;stroke-width:2;stroke-miterlimit:10;}
	.st35{fill:#080808;stroke:#0F0A11;stroke-width:2;stroke-miterlimit:10;}
	.st36{stroke:#0E0B11;stroke-width:2;stroke-miterlimit:10;}
	.st37{fill:#0A0A0A;}
	.st38{fill:#0D0D0D;}
	.st39{fill:#FFFFFF;}
	.st40{display:none;fill:#1A1A1A;}
	.st41{fill:#2C085E;}
</style>
  <rect id="svgEditorBackground" x="0.2" y="0.2" class="st0" width="749.5" height="630.1"/>
  <g>
    <path d="M664.2,214c-6.7-16.7-20.5-20.9-21.8-22c-11.7-10.3-2.5-21.2-19.9-30.7c-18.3-9.9-71.9-37-114.2-31.4 c-9.2,1.2-27.8,17.6-41.2,17.6c-21.9,0-92.1,0-92.1,0s-70.3,0-92.1,0c-13.4,0-32-16.4-41.2-17.6c-42.2-5.6-95.9,21.4-114.2,31.4 c-17.5,9.5-8.2,20.3-19.9,30.7c-1.3,1.1-15.1,5.3-21.8,22C23.1,370-1.5,469,0.3,529c2.9,94.4,76.5,101.3,76.5,101.3 c37-8.6,111.5-129.1,168.4-129.1c31.1,0,129.7,0,129.7,0s98.6,0,129.7,0c57,0,131.4,120.4,168.4,129.1c0,0,73.6-6.9,76.5-101.3 C751.5,469,726.9,370,664.2,214z"/>
    <g>
      <path class="st0" d="M106.4,192.7c0.5-0.3,0.9-0.5,1.2-0.6C107.2,192.3,106.8,192.5,106.4,192.7z"/>
      <path class="st0" d="M642.4,192c0.2,0.2,0.8,0.4,1.5,0.8C643.4,192.6,642.9,192.3,642.4,192z"/>
      <linearGradient id="SVGID_1_" gradientUnits="userSpaceOnUse" x1="215.2132" y1="475.3273" x2="215.2132" y2="474.3273" gradientTransform="matrix(749.5418 0 0 -472.9817 -160936.25 224978.4063)">
        <stop offset="0" style="stop-color:#1E013F"/>
        <stop offset="1" style="stop-color:#514CFD"/>
      </linearGradient>
      <path class="st1" d="M664.2,214c-3.3-8.3-8.4-13.5-12.9-16.8c-3-2.2-5.7-3.6-7.4-4.4c-0.8-0.4-1.3-0.6-1.5-0.8 c-33.5-18-97.4-38.1-117.4-34.3c-26,5-65.5,79.7-88.9,79.7c-15.1,0-60.5,0-60.5,0s-45.4,0-60.5,0c-23.4,0-62.9-74.6-88.9-79.7 c-19.6-3.8-85.5,16.4-118.7,34.3c-0.2,0.2-0.6,0.4-1.2,0.6c-1.8,0.8-5.1,2.4-8.7,5.3c-4.2,3.3-8.8,8.3-11.9,16 C23.1,370-1.5,469,0.3,529c2.9,94.4,76.5,101.3,76.5,101.3c37-8.6,111.5-129.1,168.4-129.1c31.1,0,129.7,0,129.7,0s98.6,0,129.7,0 c57,0,131.4,120.4,168.4,129.1c0,0,73.6-6.9,76.5-101.3C751.5,469,726.9,370,664.2,214L664.2,214z"/>
    </g>
    <line class="st0" x1="107.6" y1="192" x2="107.6" y2="193.6"/>
    <line class="st0" x1="642.4" y1="191.5" x2="642.4" y2="192.5"/>
    <g id="Dpad">
      <g>
        <path d="M277.7,462c-33.4,0-60.6-27.2-60.6-60.6c0-33.4,27.2-60.6,60.6-60.6c33.4,0,60.6,27.2,60.6,60.6 C338.3,434.8,311.1,462,277.7,462z"/>
        <g>
          <path class="st2" d="M277.7,341.8c32.9,0,59.6,26.7,59.6,59.6c0,32.9-26.7,59.6-59.6,59.6c-32.9,0-59.6-26.7-59.6-59.6 C218.1,368.6,244.9,341.8,277.7,341.8 M277.7,339.8c-34,0-61.6,27.6-61.6,61.6c0,34,27.6,61.6,61.6,61.6 c34,0,61.6-27.6,61.6-61.6C339.3,367.4,311.7,339.8,277.7,339.8L277.7,339.8z"/>
        </g>
      </g>
      <g class="st3">
        <g class="st4">
          <path class="st5" d="M291.3,353.5L291.3,353.5c0-5-27.1-5-27.1,0c0,23.8,0,95.9,0,95.9l0,0l0,0c0,5,27.1,5,27.1,0 C291.3,425.6,291.3,353.5,291.3,353.5L291.3,353.5z"/>
        </g>
        <g class="st4">
          <path class="st5" d="M229.8,387.9L229.8,387.9c-5,0-5,27.1,0,27.1c23.9,0,95.9,0,95.9,0l0,0l0,0c5,0,5-27.1,0-27.1 C301.8,387.9,229.8,387.9,229.8,387.9L229.8,387.9z"/>
        </g>
      </g>
      <g class="st3">
        <g class="st4">
          <path class="st6" d="M277.7,349.8c6.8,0,13.6,1.2,13.6,3.7v0h0c0,0,0,15.4,0,34.4c13.8,0,26.6,0,34.4,0c5,0,5,27.1,0,27.1l0,0 l0,0c0,0-15.5,0-34.4,0c0,13.8,0,26.7,0,34.4c0,2.5-6.8,3.7-13.6,3.7c-6.8,0-13.6-1.2-13.6-3.7l0,0l0,0c0,0,0-15.4,0-34.4 c-13.8,0-26.6,0-34.4,0c-5,0-5-27.1,0-27.1h0c0,0,15.4,0,34.4,0c0-13.8,0-26.7,0-34.4C264.2,351,270.9,349.8,277.7,349.8 M277.7,346.2c-3.8,0-7.5,0.4-10.2,1c-5.8,1.4-7,4.2-7,6.3v30.8h-30.8c-2.1,0-4.9,1.2-6.3,7c-0.7,2.7-1,6.4-1,10.2 c0,3.8,0.4,7.4,1,10.2c1.4,5.8,4.2,7,6.3,7h30.8v30.8v0.8l0.1,0.2c0.4,1.9,2.1,4,6.9,5.2c2.7,0.7,6.3,1,10.2,1 c3.8,0,7.4-0.4,10.2-1c5.8-1.4,7-4.2,7-6.3v-30.8h30.8h1.5l0.3-0.3c1.7-0.7,3.4-2.5,4.5-6.6c0.7-2.7,1-6.4,1-10.2 c0-3.8-0.4-7.4-1-10.2c-1.4-5.8-4.2-7-6.3-7h-30.8v-30.8c0-2.1-1.2-4.9-7-6.3C285.2,346.5,281.5,346.2,277.7,346.2L277.7,346.2z "/>
        </g>
        <line class="st7" x1="287.7" y1="357.1" x2="294.9" y2="349.9"/>
        <line class="st7" x1="267.8" y1="356.1" x2="261" y2="349.3"/>
        <line class="st7" x1="322.3" y1="391.2" x2="329" y2="384.5"/>
        <line class="st7" x1="322.8" y1="412.1" x2="328.5" y2="417.8"/>
        <line class="st7" x1="286.7" y1="392.4" x2="295.8" y2="383.3"/>
        <line class="st7" x1="286.2" y1="409.9" x2="296.4" y2="420.1"/>
        <line class="st7" x1="287.6" y1="445.7" x2="295" y2="453.1"/>
        <line class="st7" x1="268.6" y1="445" x2="259.8" y2="453.8"/>
        <line class="st7" x1="269.6" y1="409.5" x2="258.7" y2="420.5"/>
        <line class="st7" x1="270.4" y1="394.1" x2="258" y2="381.7"/>
        <line class="st7" x1="233.8" y1="410.9" x2="225.7" y2="419.1"/>
        <line class="st7" x1="233.5" y1="391.6" x2="226.1" y2="384.2"/>
      </g>
      <g>
        <g>
          <path class="st5" d="M277.7,452.6c-7.1,0-12.7-1.3-13-3.1c0,0,0-0.1,0-0.1c0-0.1,0-15.5,0-34.4c0-0.3-0.2-0.5-0.5-0.5h-34.4 c-1.8,0-3.2-5.7-3.2-13s1.4-13,3.2-13h34.4c0.3,0,0.5-0.2,0.5-0.5v-34.4c0,0,0-0.1,0-0.1l0.1-0.2c0,0,0.1-0.1,0.1-0.1 c0.5-0.8,2.1-1.5,4.5-2c0.3-0.1,0.6-0.1,0.9-0.2c0.4-0.1,0.7-0.1,1-0.1c0,0,0.1,0,0.2,0c0.3,0,0.6-0.1,0.9-0.1 c0.3,0,0.7-0.1,1-0.1c0.4,0,0.7-0.1,1-0.1l2.4-0.1c0.4,0,0.7,0,1,0c7.3,0,13.1,1.4,13.1,3.2c0,0.2,0,16,0,34.4 c0,0.3,0.2,0.5,0.5,0.5h34.4c1.8,0,3.2,5.7,3.2,13s-1.4,13-3.2,13h-34.4c-0.3,0-0.5,0.2-0.5,0.5v34.4c0,0,0,0.1,0,0.2 C290.5,451.3,284.9,452.6,277.7,452.6z"/>
          <path class="st8" d="M277.7,350.8c8.1,0,12.6,1.6,12.6,2.7c0,0,0,0,0,0v34.4c0,0.6,0.4,1,1,1h34.4c1.1,0,2.7,4.8,2.7,12.5 c0,7.8-1.6,12.5-2.7,12.5h-34.4c-0.6,0-1,0.4-1,1v34.4c0,0,0,0,0,0.1c-0.2,1.1-4.7,2.7-12.6,2.7c-7.9,0-12.4-1.5-12.5-2.7 c0,0,0-0.1,0-0.1V415c0-0.6-0.4-1-1-1h-34.4c-1.1,0-2.7-4.8-2.7-12.5s1.6-12.6,2.7-12.6h34.4c0.6,0,1-0.4,1-1v-34.4c0,0,0,0,0,0 l0,0c0,0,0,0,0,0l0,0c0,0,0-0.1,0-0.1c0,0,0,0,0-0.1c0.2-0.2,0.9-1.1,4.2-1.8c0,0,0,0,0.1,0c0.3-0.1,0.6-0.1,0.8-0.2l0.1,0 c0.3-0.1,0.6-0.1,0.8-0.1c0,0,0.1,0,0.2,0c0.3,0,0.6-0.1,0.9-0.1c0,0,0,0,0,0c0.3,0,0.7-0.1,1-0.1l0,0c0,0,0,0,0,0 c0.3,0,0.6-0.1,1-0.1l0.1,0c0.2,0,0.4,0,0.6,0l0.4,0c0.1,0,0.1,0,0.2,0c0.3,0,0.7,0,1,0l0.1,0 C277,350.8,277.4,350.8,277.7,350.8 M277.7,349.8c-0.3,0-0.7,0-1.1,0c0,0-0.1,0-0.1,0c-0.3,0-0.7,0-1,0c-0.1,0-0.1,0-0.2,0 c-0.3,0-0.7,0-1,0c0,0-0.1,0-0.1,0c-0.3,0-0.7,0-1,0.1c0,0,0,0,0,0c-0.3,0-0.7,0.1-1,0.1h0c-0.3,0-0.7,0.1-1,0.1c0,0,0,0-0.1,0 c-0.3,0-0.6,0.1-0.9,0.1c0,0,0,0-0.1,0c-0.3,0.1-0.6,0.1-0.9,0.2c0,0,0,0,0,0c-2.4,0.5-4.2,1.2-4.9,2.2c0,0-0.1,0.1-0.1,0.2 c0,0,0,0,0,0c0,0.1,0,0.1,0,0.2c0,0,0,0,0,0c0,0,0,0.1,0,0.1c0,0.1,0,0.1,0,0.2c0,7.7,0,20.6,0,34.4c-19,0-34.4,0-34.4,0h0 c-5,0-5,27.1,0,27.1c7.8,0,20.6,0,34.4,0c0,19,0,34.4,0,34.4l0,0c0,0.1,0,0.2,0,0.2c0.4,2.3,7,3.5,13.5,3.5 c6.6,0,13.1-1.2,13.5-3.5c0-0.1,0-0.2,0-0.2c0-7.7,0-20.6,0-34.4c18.9,0,34.4,0,34.4,0l0,0c5,0,5-27.1,0-27.1 c-7.8,0-20.6,0-34.4,0c0-19,0-34.4,0-34.4h0v0C291.3,351,284.5,349.8,277.7,349.8L277.7,349.8z"/>
        </g>
        <path class="st9" d="M264.2,387.9l-3.6-3.6h-30.8c-0.9,0-1.8,0.2-2.8,0.8l2.8,2.8C229.8,387.9,245.2,387.9,264.2,387.9z"/>
        <path class="st10" d="M229.8,387.9L229.8,387.9l-2.8-2.8c-1.4,0.9-2.7,2.7-3.5,6.1c-0.7,2.7-1,6.4-1,10.2c0,3.8,0.4,7.4,1,10.2 c0.8,3.4,2.2,5.2,3.5,6.1l2.8-2.8C224.8,415,224.8,387.9,229.8,387.9z"/>
        <path class="st9" d="M269.3,350.5C269.3,350.5,269.3,350.5,269.3,350.5c0.3-0.1,0.6-0.1,0.9-0.2c0,0,0,0,0.1,0 c0.3-0.1,0.6-0.1,0.9-0.1c0,0,0,0,0.1,0c0.3,0,0.7-0.1,1-0.1h0c0.3,0,0.7-0.1,1-0.1c0,0,0,0,0,0c0.3,0,0.7-0.1,1-0.1 c0,0,0.1,0,0.1,0c0.3,0,0.6,0,1,0c0.1,0,0.1,0,0.2,0c0.3,0,0.7,0,1,0c0,0,0.1,0,0.1,0c0.3,0,0.7,0,1.1,0c6.8,0,13.6,1.2,13.6,3.7 l2.8-2.8c-0.9-1.4-2.7-2.7-6.1-3.5c-2.7-0.7-6.4-1-10.2-1c-3.8,0-7.5,0.4-10.2,1c-2.9,0.7-4.7,1.8-5.7,3l2.6,2.6 C265,351.7,266.8,351,269.3,350.5z"/>
        <path class="st11" d="M325.7,387.9l2.8-2.8c-0.9-0.6-1.9-0.8-2.8-0.8h-30.8l-3.6,3.6C305.1,387.9,317.9,387.9,325.7,387.9z"/>
        <path class="st12" d="M291.3,353.5L291.3,353.5c0,0,0,15.4,0,34.4l3.6-3.6l0,0v-30.8c0-0.9-0.2-1.8-0.8-2.8L291.3,353.5 L291.3,353.5z"/>
        <path class="st10" d="M264.2,353.5c0-0.1,0-0.1,0-0.2c0,0,0-0.1,0-0.1c0,0,0,0,0,0c0-0.1,0-0.1,0-0.2c0,0,0,0,0,0 c0-0.1,0.1-0.1,0.1-0.2l-2.6-2.6c-1,1.1-1.3,2.3-1.3,3.3v30.8l3.6,3.6C264.2,374.1,264.2,361.2,264.2,353.5z"/>
        <path class="st13" d="M325.7,415L325.7,415c0,0-15.5,0-34.4,0l3.6,3.6h30.8h1.5l0.3-0.3c0.3-0.1,0.6-0.3,0.9-0.5L325.7,415 L325.7,415z"/>
        <path class="st14" d="M291.3,449.4l2.8,2.8c0.6-0.9,0.8-1.9,0.8-2.8v-30.8l-3.6-3.6C291.3,428.8,291.3,441.7,291.3,449.4z"/>
        <path class="st14" d="M332,391.3c-0.8-3.4-2.2-5.2-3.6-6.1l-2.8,2.8c5,0,5,27.1,0,27.1l2.8,2.8c1.4-0.9,2.7-2.7,3.5-6.1 c0.7-2.7,1-6.4,1-10.2C333,397.6,332.7,394,332,391.3z"/>
        <path class="st13" d="M291.3,449.6c-0.4,2.3-7,3.5-13.5,3.5s-13.1-1.2-13.5-3.5c0-0.1,0-0.2,0-0.2l-2.8,2.8 c0.9,1.4,2.7,2.7,6.2,3.5c2.7,0.7,6.3,1,10.2,1c3.8,0,7.4-0.4,10.2-1c3.4-0.8,5.2-2.2,6.1-3.5l-2.8-2.8 C291.3,449.5,291.3,449.5,291.3,449.6z"/>
        <path class="st12" d="M264.2,449.4L264.2,449.4c0,0,0-15.4,0-34.4l-3.6,3.6v30.8v0.8l0.1,0.2c0.1,0.5,0.3,1.1,0.7,1.7 L264.2,449.4L264.2,449.4z"/>
        <path class="st15" d="M229.8,415l-2.8,2.8c1,0.6,1.9,0.8,2.8,0.8h30.8l3.6-3.6C250.4,415,237.5,415,229.8,415z"/>
      </g>
      <g class="st3">
        <path class="st16" d="M264.2,387.9l-3.6-3.6L264.2,387.9z"/>
        <polygon class="st17" points="291.3,387.9 294.9,384.3 294.9,384.3 294.9,384.3 &#9;&#9;&#9;"/>
        <g id="Up" class="st4">
          <g>
            <path class="st18" d="M264.7,387.7v-34.2c0,0,0-0.1,0-0.1l0.1-0.2c0,0,0.1-0.1,0.1-0.1c0.5-0.8,2.1-1.5,4.5-2 c0.3-0.1,0.6-0.1,0.9-0.2c0.4-0.1,0.7-0.1,1-0.1c0,0,0.1,0,0.2,0c0.3,0,0.6-0.1,0.9-0.1c0.3,0,0.7-0.1,1-0.1 c0.4,0,0.7-0.1,1-0.1l2.4-0.1c0.4,0,0.7,0,1,0c7.3,0,13.1,1.4,13.1,3.2c0,0.2,0,15.9,0,34.2l-13.1,13L264.7,387.7z"/>
            <path class="st19" d="M277.7,350.8c8.1,0,12.6,1.6,12.6,2.7c0,0,0,0,0,0v33.9L277.7,400l-12.6-12.5v-34c0,0,0,0,0,0l0,0 c0,0,0,0,0,0l0,0c0,0,0-0.1,0-0.1c0,0,0,0,0-0.1c0.2-0.2,0.9-1.1,4.2-1.8c0,0,0,0,0.1,0c0.3-0.1,0.6-0.1,0.8-0.2l0.1,0 c0.3-0.1,0.6-0.1,0.8-0.1c0,0,0.1,0,0.2,0c0.3,0,0.6-0.1,0.9-0.1c0,0,0,0,0,0c0.3,0,0.7-0.1,1-0.1l0,0c0,0,0,0,0,0 c0.3,0,0.6-0.1,1-0.1l0.1,0c0.2,0,0.4,0,0.6,0l0.4,0c0.1,0,0.1,0,0.2,0c0.3,0,0.7,0,1,0l0.1,0 C277,350.8,277.4,350.8,277.7,350.8 M277.7,349.8c-0.3,0-0.7,0-1.1,0c0,0-0.1,0-0.1,0c-0.3,0-0.7,0-1,0c-0.1,0-0.1,0-0.2,0 c-0.3,0-0.7,0-1,0c0,0-0.1,0-0.1,0c-0.3,0-0.7,0-1,0.1c0,0,0,0,0,0c-0.3,0-0.7,0.1-1,0.1h0c-0.3,0-0.7,0.1-1,0.1c0,0,0,0-0.1,0 c-0.3,0-0.6,0.1-0.9,0.1c0,0,0,0-0.1,0c-0.3,0.1-0.6,0.1-0.9,0.2c0,0,0,0,0,0c-2.4,0.5-4.2,1.2-4.9,2.2c0,0-0.1,0.1-0.1,0.2 c0,0,0,0,0,0c0,0.1,0,0.1,0,0.2c0,0,0,0,0,0c0,0,0,0.1,0,0.1c0,0.1,0,0.1,0,0.2c0,7.7,0,20.6,0,34.4l13.6,13.5l13.6-13.5 c0-19,0-34.4,0-34.4h0v0C291.3,351,284.5,349.8,277.7,349.8L277.7,349.8z"/>
          </g>
          <path class="st20" d="M269.3,350.5C269.3,350.5,269.3,350.5,269.3,350.5c0.3-0.1,0.6-0.1,0.9-0.2c0,0,0,0,0.1,0 c0.3-0.1,0.6-0.1,0.9-0.1c0,0,0,0,0.1,0c0.3,0,0.7-0.1,1-0.1h0c0.3,0,0.7-0.1,1-0.1c0,0,0,0,0,0c0.3,0,0.7-0.1,1-0.1 c0,0,0.1,0,0.1,0c0.3,0,0.6,0,1,0c0.1,0,0.1,0,0.2,0c0.3,0,0.7,0,1,0c0,0,0.1,0,0.1,0c0.3,0,0.7,0,1.1,0 c6.8,0,13.6,1.2,13.6,3.7l2.8-2.8c-0.9-1.4-2.7-2.7-6.1-3.5c-2.7-0.7-6.4-1-10.2-1c-3.8,0-7.5,0.4-10.2,1 c-2.9,0.7-4.7,1.8-5.7,3l2.6,2.6C265,351.7,266.8,351,269.3,350.5z"/>
          <path class="st21" d="M291.3,353.5L291.3,353.5c0,0,0,15.4,0,34.4l3.6-3.6v-30.8c0-0.9-0.2-1.8-0.8-2.8L291.3,353.5L291.3,353.5 z"/>
          <path class="st22" d="M264.2,353.5c0-0.1,0-0.1,0-0.2c0,0,0-0.1,0-0.1c0,0,0,0,0,0c0-0.1,0-0.1,0-0.2c0,0,0,0,0,0 c0-0.1,0.1-0.1,0.1-0.2l-2.6-2.6c-1,1.1-1.3,2.3-1.3,3.3v30.8l3.6,3.6C264.2,374.1,264.2,361.2,264.2,353.5z"/>
        </g>
        <polygon class="st23" points="294.9,418.6 291.3,415 291.3,415 &#9;&#9;&#9;"/>
        <g id="Right" class="st4">
          <g>
            <path class="st18" d="M291.5,414.5l-13.1-13.1l13.1-13h34.2c1.8,0,3.2,5.7,3.2,13s-1.4,13-3.2,13H291.5z"/>
            <path class="st19" d="M325.7,388.9c1.1,0,2.7,4.8,2.7,12.5c0,7.8-1.6,12.5-2.7,12.5h-34l-12.6-12.6l12.6-12.5H325.7 M325.7,387.9c-7.8,0-20.6,0-34.4,0l-13.6,13.5l13.6,13.6c18.9,0,34.4,0,34.4,0l0,0C330.6,415,330.6,387.9,325.7,387.9 L325.7,387.9z"/>
          </g>
          <path class="st24" d="M325.7,387.9l2.8-2.8c-0.9-0.6-1.9-0.8-2.8-0.8h-30.8l-3.6,3.6C305.1,387.9,317.9,387.9,325.7,387.9z"/>
          <path class="st25" d="M325.7,415L325.7,415c0,0-15.5,0-34.4,0l3.6,3.6h30.8h1.5l0.3-0.3c0.3-0.1,0.6-0.3,0.9-0.5L325.7,415 L325.7,415z"/>
          <path class="st26" d="M328.4,385.1l-2.8,2.8c5,0,5,27.1,0,27.1l2.8,2.8c1.4-0.9,2.7-2.7,3.5-6.1c0.7-2.7,1-6.4,1-10.2 c0-3.8-0.4-7.4-1-10.2C331.1,387.9,329.8,386,328.4,385.1z"/>
        </g>
        <g id="Down" class="st4">
          <g>
            <path class="st18" d="M277.7,452.6c-7.1,0-12.7-1.3-13-3.1c0,0,0-0.1,0-0.1c0-0.1,0-15.4,0-34.2l13.1-13.1l13.1,13.1v34.2 c0,0,0,0.1,0,0.2C290.5,451.3,284.9,452.6,277.7,452.6z"/>
            <path class="st19" d="M277.7,402.8l12.6,12.6v34c0,0,0,0,0,0.1c-0.2,1.1-4.7,2.7-12.6,2.7c-7.9,0-12.4-1.5-12.5-2.7 c0,0,0-0.1,0-0.1v-34L277.7,402.8 M277.7,401.4L264.2,415c0,19,0,34.4,0,34.4l0,0c0,0.1,0,0.2,0,0.2c0.4,2.3,7,3.5,13.5,3.5 c6.6,0,13.1-1.2,13.5-3.5c0-0.1,0-0.2,0-0.2c0-7.7,0-20.6,0-34.4L277.7,401.4L277.7,401.4z"/>
          </g>
          <path class="st26" d="M291.3,449.4l2.8,2.8c0.6-0.9,0.8-1.9,0.8-2.8v-30.8l-3.6-3.6C291.3,428.8,291.3,441.7,291.3,449.4z"/>
          <path class="st25" d="M291.3,449.6c-0.4,2.3-7,3.5-13.5,3.5s-13.1-1.2-13.5-3.5c0-0.1,0-0.2,0-0.2l-2.8,2.8 c0.9,1.4,2.7,2.7,6.2,3.5c2.7,0.7,6.3,1,10.2,1c3.8,0,7.4-0.4,10.2-1c3.4-0.8,5.2-2.2,6.1-3.5l-2.8-2.8 C291.3,449.5,291.3,449.5,291.3,449.6z"/>
          <path class="st21" d="M264.2,449.4L264.2,449.4c0,0,0-15.4,0-34.4l-3.6,3.6v30.8v0.8l0.1,0.2c0.1,0.5,0.3,1.1,0.7,1.7 L264.2,449.4L264.2,449.4z"/>
        </g>
        <g id="left" class="st4">
          <g>
            <path class="st18" d="M229.8,414.5c-1.8,0-3.2-5.7-3.2-13s1.4-13,3.2-13H264l13.1,13L264,414.5H229.8z"/>
            <path class="st19" d="M263.8,388.9l12.6,12.5L263.8,414h-34c-1.1,0-2.7-4.8-2.7-12.5s1.6-12.6,2.7-12.6L263.8,388.9 M264.2,387.9c-19,0-34.4,0-34.4,0h0c-5,0-5,27.1,0,27.1c7.8,0,20.6,0,34.4,0l13.6-13.6L264.2,387.9L264.2,387.9z"/>
          </g>
          <path class="st20" d="M264.2,387.9l-3.6-3.6h-30.8c-0.9,0-1.8,0.2-2.8,0.8l2.8,2.8C229.8,387.9,245.2,387.9,264.2,387.9z"/>
          <path class="st22" d="M229.8,387.9L229.8,387.9l-2.8-2.8c-1.4,0.9-2.7,2.7-3.5,6.1c-0.7,2.7-1,6.4-1,10.2c0,3.8,0.4,7.4,1,10.2 c0.8,3.4,2.2,5.2,3.5,6.1l2.8-2.8C224.8,415,224.8,387.9,229.8,387.9z"/>
          <path class="st27" d="M229.8,415l-2.8,2.8c1,0.6,1.9,0.8,2.8,0.8h30.8l3.6-3.6C250.4,415,237.5,415,229.8,415z"/>
        </g>
      </g>
    </g>
    <g id="Menu_Key">
      <g>
        <path class="st28" d="M448.9,280.4c0,10.4-8.4,18.8-18.8,18.8c-10.4,0-18.8-8.4-18.8-18.8c0-10.4,8.4-18.8,18.8-18.8 C440.5,261.6,448.9,270,448.9,280.4z"/>
      </g>
      <g>
        <path class="st29" d="M446.2,280.4c0,8.9-7.2,16.1-16.1,16.1c-8.9,0-16.1-7.2-16.1-16.1c0-8.9,7.2-16.1,16.1-16.1 C439,264.3,446.2,271.5,446.2,280.4z"/>
        <g>
          <rect x="422.9" y="275.8" class="st30" width="14.4" height="1.6"/>
          <rect x="422.9" y="279.7" class="st30" width="14.4" height="1.6"/>
          <rect x="422.9" y="283.5" class="st30" width="14.4" height="1.5"/>
        </g>
      </g>
      <g id="Menu_Pressed" class="st3">
        <path class="st31" d="M446.2,280.4c0,8.9-7.2,16.1-16.1,16.1c-8.9,0-16.1-7.2-16.1-16.1c0-8.9,7.2-16.1,16.1-16.1 C439,264.3,446.2,271.5,446.2,280.4z"/>
        <g class="st4">
          <rect x="422.9" y="275.8" class="st32" width="14.4" height="1.6"/>
          <rect x="422.9" y="279.7" class="st32" width="14.4" height="1.6"/>
          <rect x="422.9" y="283.5" class="st32" width="14.4" height="1.5"/>
        </g>
      </g>
    </g>
    <g id="Switcher_Key">
      <g>
        <path class="st28" d="M341,280.4c0,10.4-8.4,18.8-18.8,18.8c-10.4,0-18.8-8.4-18.8-18.8c0-10.4,8.4-18.8,18.8-18.8 C332.5,261.6,341,270,341,280.4z"/>
      </g>
      <g>
        <path class="st29" d="M338.2,280.4c0,8.9-7.2,16.1-16.1,16.1c-8.9,0-16.1-7.2-16.1-16.1c0-8.9,7.2-16.1,16.1-16.1 C331,264.3,338.2,271.5,338.2,280.4z"/>
        <g>
          <polygon class="st30" points="319.6,280.3 316.6,280.3 316.6,276.5 322.1,276.5 322.1,277.8 323.9,277.8 323.9,274.8 315,274.8 &#10;&#9;&#9;&#9;&#9;&#9;315,282.2 319.6,282.2 &#9;&#9;&#9;&#9;"/>
          <path class="st30" d="M320.4,278.4v7.6h9v-7.6H320.4z M327.5,284.2h-5.5v-3.9h5.5V284.2z"/>
        </g>
      </g>
    </g>
    <g id="Left_Stick">
      <g>
        <path class="st33" d="M185.6,351.5c-37.3,0-67.7-30.3-67.7-67.6s30.3-67.6,67.7-67.6c37.3,0,67.7,30.3,67.7,67.6 S222.9,351.5,185.6,351.5z"/>
      </g>
      <path class="st34" d="M241.7,279.9c0,31-25.1,56-56.1,56c-31,0-56.1-25.1-56.1-56c0-31,25.1-56.1,56.1-56.1 C216.6,223.8,241.7,248.9,241.7,279.9z"/>
    </g>
    <g id="Right_Stick">
      <g>
        <path class="st35" d="M473,465.4c-37.3,0-67.6-30.3-67.6-67.6c0-37.3,30.3-67.7,67.6-67.7c37.3,0,67.7,30.4,67.7,67.7 C540.6,435,510.3,465.4,473,465.4z"/>
      </g>
      <path class="st36" d="M529.1,393.8c0,31-25.1,56.1-56.1,56.1c-31,0-56-25.1-56-56.1c0-31,25.1-56.1,56-56.1 C504,337.7,529.1,362.8,529.1,393.8z"/>
    </g>
    <g id="Button_Base">
      <g id="A">
        <path class="st37" d="M566.6,355.2c-13.9,0-25.2-11.3-25.2-25.2c0-13.9,11.3-25.2,25.2-25.2c13.9,0,25.2,11.3,25.2,25.2 C591.8,343.9,580.5,355.2,566.6,355.2z"/>
        <path class="st28" d="M566.6,306.4c13.1,0,23.7,10.6,23.7,23.7c0,13.1-10.6,23.7-23.7,23.7c-13.1,0-23.7-10.6-23.7-23.7 C543,317,553.6,306.4,566.6,306.4 M566.6,303.4c-14.7,0-26.7,12-26.7,26.7c0,14.7,12,26.7,26.7,26.7c14.7,0,26.7-12,26.7-26.7 C593.3,315.4,581.4,303.4,566.6,303.4L566.6,303.4z"/>
      </g>
      <g id="Y">
        <path class="st37" d="M566.6,254.2c-13.9,0-25.2-11.3-25.2-25.2c0-13.9,11.3-25.2,25.2-25.2c13.9,0,25.2,11.3,25.2,25.2 C591.8,242.9,580.5,254.2,566.6,254.2z"/>
        <path class="st28" d="M566.6,205.4c13.1,0,23.7,10.6,23.7,23.7c0,13.1-10.6,23.7-23.7,23.7c-13.1,0-23.7-10.6-23.7-23.7 C543,216,553.6,205.4,566.6,205.4 M566.6,202.4c-14.7,0-26.7,12-26.7,26.7c0,14.7,12,26.7,26.7,26.7c14.7,0,26.7-12,26.7-26.7 C593.3,214.3,581.4,202.4,566.6,202.4L566.6,202.4z"/>
      </g>
      <g id="B">
        <path class="st37" d="M617.2,304.7c-13.9,0-25.2-11.3-25.2-25.2c0-13.9,11.3-25.2,25.2-25.2c13.9,0,25.2,11.3,25.2,25.2 C642.3,293.4,631,304.7,617.2,304.7z"/>
        <path class="st28" d="M617.2,255.9c13.1,0,23.7,10.6,23.7,23.7c0,13.1-10.6,23.7-23.7,23.7c-13.1,0-23.7-10.6-23.7-23.7 C593.5,266.5,604.1,255.9,617.2,255.9 M617.2,252.9c-14.7,0-26.7,12-26.7,26.7c0,14.7,12,26.7,26.7,26.7 c14.7,0,26.7-12,26.7-26.7C643.8,264.8,631.9,252.9,617.2,252.9L617.2,252.9z"/>
      </g>
      <g id="X">
        <path class="st37" d="M516.1,304.7c-13.9,0-25.2-11.3-25.2-25.2c0-13.9,11.3-25.2,25.2-25.2c13.9,0,25.2,11.3,25.2,25.2 C541.3,293.4,530,304.7,516.1,304.7z"/>
        <path class="st28" d="M516.1,255.9c13.1,0,23.7,10.6,23.7,23.7c0,13.1-10.6,23.7-23.7,23.7c-13.1,0-23.7-10.6-23.7-23.7 C492.5,266.5,503.1,255.9,516.1,255.9 M516.1,252.9c-14.7,0-26.7,12-26.7,26.7c0,14.7,12,26.7,26.7,26.7 c14.7,0,26.7-12,26.7-26.7C542.8,264.8,530.8,252.9,516.1,252.9L516.1,252.9z"/>
      </g>
    </g>
    <g>
      <g>
        <path class="st15" d="M375.6,156.6c0,0-88.9-1.1-100.5-3l-16.4,30.5c20.2,23.3,41.6,53.3,56.4,53.3c15.1,0,60.5,0,60.5,0 s45.4,0,60.5,0c14.9,0,36.2-30,56.4-53.3l-16.4-30.5C464.5,155.5,375.6,156.6,375.6,156.6z"/>
        <path class="st38" d="M476.1,153.6l-3.6-6.8c-1.9,0.5-3.7,0.7-5.4,0.7c-21.9,0-92.1,0-92.1,0s-70.3,0-92.1,0 c-1.4,0-2.8-0.2-4.3-0.5l-3.5,6.5c11.6,1.9,100.5,3,100.5,3S464.5,155.5,476.1,153.6z"/>
      </g>
      <g id="RB_1_">
        <path class="st15" d="M642.4,192c-9-7.9-5.6-16.2-11.5-23.8c0.2,0.3,0.5,0.7,0.7,1c0,0-96.5-42-120.7-34.5 c-15.6,4.9-27.2,15.3-32.8,18.2l15.9,29.6c11.2-12.7,21.9-23,31-24.7C545,153.9,608.9,174,642.4,192 C642.4,192,642.4,192,642.4,192z"/>
        <path class="st38" d="M510.9,134.7c24.3-7.6,120.7,34.4,120.7,34.5c-0.2-0.3-0.5-0.7-0.7-1c0,0-0.1-0.1-0.1-0.1 c-0.1-0.1-0.2-0.2-0.3-0.4c0-0.1-0.1-0.1-0.1-0.2c-0.1-0.1-0.2-0.2-0.3-0.3c-0.1-0.1-0.1-0.1-0.2-0.2c-0.1-0.1-0.2-0.2-0.3-0.3 c-0.1-0.1-0.1-0.1-0.2-0.2c-0.1-0.1-0.2-0.2-0.3-0.3c-0.1-0.1-0.1-0.1-0.2-0.2c-0.1-0.1-0.2-0.2-0.3-0.3 c-0.1-0.1-0.2-0.1-0.2-0.2c-0.1-0.1-0.2-0.2-0.3-0.3c-0.1-0.1-0.1-0.1-0.2-0.2c-0.1-0.1-0.2-0.2-0.3-0.3 c-0.1-0.1-0.2-0.1-0.3-0.2c-0.1-0.1-0.2-0.2-0.3-0.3c-0.1-0.1-0.2-0.1-0.3-0.2c-0.1-0.1-0.2-0.2-0.4-0.3c-0.1,0-0.2-0.1-0.3-0.2 c-0.1-0.1-0.3-0.2-0.4-0.3c-0.1-0.1-0.2-0.1-0.3-0.2c-0.1-0.1-0.3-0.2-0.4-0.3c-0.1-0.1-0.2-0.1-0.3-0.2 c-0.2-0.1-0.3-0.2-0.5-0.3c-0.1-0.1-0.2-0.1-0.3-0.2c-0.2-0.1-0.4-0.2-0.5-0.3c-0.1-0.1-0.2-0.1-0.3-0.2 c-0.3-0.2-0.6-0.3-0.8-0.5c-18.3-9.9-71.9-37-114.2-31.4c-7.6,1-21.6,12.3-33.8,16.3l3.6,6.7C483.7,150,495.3,139.6,510.9,134.7z "/>
      </g>
      <g id="LB_1_">
        <path class="st38" d="M241.7,130c-42.2-5.6-95.9,21.4-114.2,31.4c-0.3,0.2-0.6,0.3-0.8,0.5c-0.1,0.1-0.2,0.1-0.2,0.2 c-0.2,0.1-0.4,0.2-0.5,0.3c-0.1,0.1-0.2,0.1-0.3,0.2c-0.1,0.1-0.3,0.2-0.5,0.3c-0.1,0-0.2,0.1-0.3,0.2c-0.1,0.1-0.3,0.2-0.4,0.3 c-0.1,0.1-0.2,0.1-0.3,0.2c-0.1,0.1-0.3,0.2-0.4,0.3c-0.1,0.1-0.2,0.1-0.3,0.2c-0.1,0.1-0.3,0.2-0.4,0.3 c-0.1,0.1-0.2,0.1-0.2,0.2c-0.1,0.1-0.2,0.2-0.4,0.3c-0.1,0.1-0.1,0.1-0.2,0.2c-0.1,0.1-0.2,0.2-0.3,0.3 c-0.1,0.1-0.1,0.1-0.2,0.2c-0.1,0.1-0.2,0.2-0.3,0.3c-0.1,0.1-0.1,0.1-0.2,0.2c-0.1,0.1-0.2,0.2-0.3,0.3c-0.1,0-0.1,0.1-0.2,0.2 c-0.1,0.1-0.2,0.2-0.3,0.3c0,0.1-0.1,0.1-0.1,0.2c-0.1,0.1-0.2,0.2-0.3,0.3c0,0-0.1,0.1-0.1,0.1c-0.1,0.1-0.2,0.3-0.3,0.4 c0,0-0.1,0.1-0.1,0.1c-0.1,0.1-0.2,0.3-0.3,0.4c0,0,0,0.1-0.1,0.1c-0.1,0.1-0.2,0.3-0.3,0.4c0,0,0,0,0,0 c-0.1,0.2-0.2,0.3-0.3,0.5c0,0,97.6-41.9,121.9-34.4c15.5,4.9,27.2,15.3,32.8,18.2l3.4-6.3C264.2,143,249.5,131,241.7,130z"/>
        <g>
          <path class="st15" d="M273.6,153.2c0.2,0.1,0.3,0.1,0.5,0.2C273.9,153.3,273.8,153.3,273.6,153.2z"/>
          <path class="st15" d="M273.2,152.9c-5.6-2.9-17.3-13.3-32.8-18.2c-24.2-7.5-121.2,34.1-121.9,34.4c-5,7.4-2.2,15.3-10.8,23 c0,0,0,0-0.1,0c33.1-17.9,99.1-38.1,118.7-34.3c9.1,1.8,19.9,12.1,31.1,24.7L273.2,152.9C273.2,152.9,273.2,152.9,273.2,152.9z"/>
          <path d="M273.2,152.9c0.2,0.1,0.3,0.2,0.5,0.2C273.5,153.1,273.3,153,273.2,152.9z"/>
        </g>
        <path d="M258,183.3c0.2,0.3,0.5,0.6,0.7,0.8l16.4-30.5l3.5-6.5c-0.3-0.1-0.7-0.1-1-0.2c-0.3-0.1-0.7-0.2-1-0.3l-3.4,6.3 l-15.8,29.6C257.5,182.8,257.8,183,258,183.3L258,183.3"/>
      </g>
      <path d="M478.1,152.9l-3.6-6.7c-0.3,0.1-0.7,0.2-1,0.3c-0.3,0.1-0.7,0.2-1,0.3l3.6,6.8l16.4,30.5c0.2-0.3,0.5-0.5,0.7-0.8 c0.2-0.3,0.5-0.5,0.7-0.8L478.1,152.9z"/>
      <path class="st15" d="M357,169.4L357,169.4L357,169.4z"/>
    </g>
    <g>
      <g>
        <g>
          <path class="st39" d="M407.6,196.5c0,18-14.6,32.6-32.6,32.6c-18,0-32.6-14.6-32.6-32.6c0-18,14.6-32.6,32.6-32.6 C393,163.9,407.6,178.5,407.6,196.5z"/>
        </g>
      </g>
      <path class="st40" d="M384,182.1c0,0,8.9-9.4,13.8-8.9c0,0,0,0,0,0c-0.7-0.7-1.5-1.4-2.3-2c0,0,0,0,0,0c-0.4-0.3-0.8-0.6-1.2-0.9 c0,0,0,0-0.1-0.1c-0.4-0.3-0.8-0.5-1.2-0.8c0,0,0,0,0,0c-0.4-0.1-0.8-0.1-1.2-0.2c-5.2-0.5-16.9,4.5-16.9,4.5s-11.6-5-16.9-4.5 c-0.4,0-0.8,0.1-1.2,0.2c0,0,0,0,0,0c-0.4,0.3-0.8,0.6-1.2,0.8c0,0,0,0-0.1,0c-0.4,0.3-0.8,0.6-1.2,0.9c0,0,0,0,0,0 c-0.8,0.6-1.5,1.3-2.3,2v0c4.8-0.6,13.8,8.9,13.8,8.9s-17.7,20.9-17,34.1c1.1,1.4,2.3,2.8,3.6,4c-0.4-12,22.3-30.1,22.3-30.1 s22.8,18.1,22.3,30.1c1.3-1.2,2.5-2.6,3.6-4c0,0,0,0,0,0C401.7,203,384,182.1,384,182.1z"/>
    </g>
    <g>
      <g>
        <path class="st15" d="M549,5.7c-0.4-0.3-0.8-0.6-1.2-0.9l-2.3,109.9l53.2,7.2C586.6,5.2,555.7,10.9,549,5.7z"/>
        <path class="st5" d="M522,0.3c-10.8,0.4-12.1,11.4-12.2,15.2v1.2c0,0,2.9,40.7,0,93c9.9,2.3,38.5,5.3,38.5,5.3s0-20.9,0.7-50.6 c0.8-37.5-1.2-59.8-1.2-59.8C541.4,0.3,534.2-0.1,522,0.3z"/>
      </g>
      <g>
        <path class="st15" d="M201.1,5.7c0.4-0.3,0.8-0.6,1.2-0.9l2.3,109.9l-53.2,7.2C163.5,5.2,194.4,10.9,201.1,5.7z"/>
        <path class="st5" d="M228.1,0.3c10.8,0.4,12.1,11.4,12.2,15.2v1.2c0,0-2.9,40.7,0,93c-9.9,2.3-38.5,5.3-38.5,5.3 s-0.1-20.9-0.7-50.6c-0.8-37.5,1.2-59.8,1.2-59.8C208.7,0.3,215.9-0.1,228.1,0.3z"/>
      </g>
    </g>
  </g>
  <g transform="matrix(0.00709, 0, 0, -0.00709, 344.7724, 230.471695)" fill="#000000" stroke="none" style="">
    <path d="M4130 9216 c-102 -31 -188 -68 -295 -129 -372 -209 -798 -562 -1371 -1132 -649 -647 -1102 -1179 -1480 -1740 -335 -497 -529 -887 -630 -1264 -34 -128 -44 -376 -20 -491 50 -239 221 -415 489 -505 214 -71 586 -115 985 -115 l189 0 26 -92 c59 -211 77 -370 77 -665 l0 -205 -54 -122 c-74 -164 -119 -283 -147 -391 -20 -79 -23 -114 -24 -285 0 -222 12 -282 85 -434 126 -262 408 -552 734 -755 l69 -43 46 22 c185 89 311 244 397 489 8 25 26 -4 60 -100 81 -227 271 -434 503 -549 l61 -31 65 31 c178 85 327 262 379 449 12 40 26 72 31 70 6 -2 24 -44 40 -94 39 -114 87 -194 169 -277 77 -78 200 -158 255 -165 116 -16 419 242 526 447 11 19 35 77 54 128 20 52 40 94 45 94 5 -1 24 -37 41 -81 18 -44 47 -105 66 -136 65 -108 217 -244 317 -285 33 -13 34 -12 160 73 369 249 622 541 723 834 l34 98 0 210 c0 206 -1 212 -32 320 -17 61 -55 166 -83 235 -103 249 -103 247 -108 430 -7 245 20 492 75 680 13 46 25 86 27 87 1 1 122 7 269 13 418 16 610 36 807 85 299 75 500 238 570 464 89 284 7 680 -244 1176 -346 682 -928 1438 -1746 2269 -594 603 -1053 993 -1432 1218 -297 175 -509 224 -708 164z m300 -265 c223 -85 686 -460 1210 -982 1128 -1122 2041 -2375 2206 -3027 27 -105 33 -265 13 -337 -17 -61 -63 -120 -132 -168 -219 -155 -549 -249 -1097 -313 -80 -9 -153 -21 -164 -26 -44 -23 -198 -441 -278 -753 l-23 -90 -45 -7 c-25 -4 -55 -10 -68 -13 -30 -7 -99 -71 -120 -109 -22 -44 -22 -161 1 -204 24 -43 87 -88 152 -106 48 -14 53 -19 59 -50 4 -18 18 -61 31 -95 14 -33 25 -64 25 -69 0 -5 -27 -21 -59 -36 -198 -91 -314 -337 -255 -536 19 -63 35 -92 83 -143 60 -65 121 -90 229 -95 60 -3 92 -8 92 -16 0 -61 -217 -306 -359 -404 -81 -57 -99 -62 -124 -34 -16 18 -14 21 31 68 111 112 88 269 -53 376 -95 72 -201 86 -299 39 -23 -12 -47 -21 -53 -21 -13 0 -65 129 -84 205 -15 64 -29 80 -29 33 0 -74 -43 -287 -79 -394 -45 -136 -107 -246 -185 -331 -68 -75 -165 -147 -227 -168 -43 -15 -44 -15 -108 16 -81 40 -191 148 -244 239 -74 128 -135 316 -164 510 l-9 55 -18 -115 c-29 -187 -100 -381 -185 -504 -41 -59 -137 -146 -200 -180 -70 -38 -118 -33 -201 20 -33 22 -60 42 -60 46 0 4 19 12 43 19 143 38 249 146 264 268 6 55 -16 144 -53 207 -38 65 -135 151 -211 187 -61 29 -77 32 -158 32 -77 0 -98 -4 -149 -28 -67 -31 -75 -27 -77 33 0 19 -4 55 -8 80 l-7 45 -22 -75 c-37 -121 -71 -200 -122 -285 -86 -141 -218 -291 -335 -380 l-34 -27 -48 33 c-147 100 -299 249 -364 359 -38 65 -81 168 -93 227 -7 32 -7 32 49 48 75 22 133 69 168 135 27 51 29 61 24 133 -6 94 -39 168 -97 221 -22 20 -40 40 -40 46 0 5 18 49 39 98 22 49 45 109 52 133 16 56 25 67 68 85 82 34 128 115 118 205 -11 89 -83 183 -161 209 -19 6 -37 19 -40 28 -3 9 -21 76 -40 147 -44 163 -99 326 -178 527 -59 152 -62 158 -92 163 -17 2 -94 12 -171 21 -581 65 -1015 207 -1157 379 -53 63 -62 93 -66 215 -4 131 15 224 83 405 242 645 1059 1740 2045 2739 478 484 825 789 1102 970 217 141 323 168 458 117z" style="fill: rgb(84, 3, 114);"/>
    <path d="M3215 6099 c-243 -31 -439 -126 -616 -296 -204 -197 -312 -398 -375 -699 -24 -113 -27 -151 -27 -314 0 -204 16 -310 74 -485 136 -408 443 -716 822 -826 92 -27 332 -37 462 -20 165 22 235 44 442 142 155 74 208 89 308 89 101 0 149 -14 316 -93 234 -111 328 -135 555 -144 221 -9 357 16 519 93 334 157 578 474 686 889 22 84 24 108 24 355 -1 283 -3 303 -61 485 -135 426 -462 732 -865 810 -118 23 -323 30 -449 16 -171 -20 -266 -48 -490 -146 -224 -99 -256 -98 -504 14 -86 39 -197 81 -252 95 -166 42 -397 56 -569 35z m430 -149 c250 -67 493 -257 620 -485 20 -36 38 -65 40 -65 2 0 26 37 54 83 162 266 399 432 694 483 232 41 502 -20 707 -159 65 -45 184 -162 240 -237 95 -128 173 -317 201 -485 17 -101 14 -295 -5 -396 -44 -234 -144 -420 -315 -589 -341 -335 -859 -372 -1242 -89 -113 84 -274 271 -315 367 -8 17 -16 32 -19 32 -2 0 -16 -23 -30 -52 -119 -236 -372 -438 -640 -510 -104 -28 -280 -34 -388 -14 -501 95 -847 528 -847 1061 0 558 364 1002 885 1079 72 11 282 -3 360 -24z" style="fill: rgb(84, 3, 114);"/>
    <path d="M3343 5776 c-77 -18 -182 -72 -247 -128 -188 -161 -243 -416 -136 -628 46 -92 163 -206 261 -254 96 -47 202 -70 295 -62 255 20 466 190 529 426 68 256 -100 537 -378 631 -80 27 -238 34 -324 15z" style="fill: rgb(84, 3, 114);"/>
    <path d="M4986 5774 c-153 -37 -311 -163 -379 -304 -72 -148 -71 -295 3 -446 90 -185 313 -324 520 -324 117 0 277 59 377 138 146 117 229 333 194 505 -15 70 -68 177 -118 238 -138 166 -381 245 -597 193z" style="fill: rgb(84, 3, 114);"/>
    <path d="M4453 3036 c-141 -66 -161 -266 -35 -351 105 -71 245 -45 297 56 20 37 19 130 -1 177 -29 72 -120 142 -181 142 -15 0 -51 -11 -80 -24z" style="fill: rgb(84, 3, 114);"/>
    <path d="M3237 2849 c-58 -14 -91 -34 -135 -84 -72 -82 -77 -167 -13 -263 42 -65 75 -85 134 -85 88 1 135 19 191 76 74 75 91 142 61 243 -18 61 -48 91 -110 110 -53 16 -73 16 -128 3z" style="fill: rgb(84, 3, 114);"/>
    <path d="M5267 2779 c-133 -32 -226 -143 -215 -258 6 -66 51 -155 95 -188 55 -42 134 -44 215 -6 74 35 132 91 154 150 22 56 15 176 -12 222 -35 59 -156 100 -237 80z" style="fill: rgb(84, 3, 114);"/>
    <path d="M3995 2491 c-47 -21 -105 -82 -136 -143 -27 -53 -37 -177 -19 -233 15 -45 71 -110 114 -132 74 -39 235 -4 305 66 44 44 61 96 61 184 0 199 -166 331 -325 258z" style="fill: rgb(84, 3, 114);"/>
    <path d="M2705 1906 c-37 -17 -80 -62 -94 -99 -28 -74 -1 -192 54 -235 62 -49 171 -51 225 -5 66 55 79 187 26 257 -53 70 -153 109 -211 82z" style="fill: rgb(84, 3, 114);"/>
    <path d="M4648 1779 c-21 -12 -66 -86 -78 -130 -15 -51 6 -115 55 -165 41 -43 43 -44 106 -44 101 0 144 35 158 126 14 95 -26 176 -106 210 -38 16 -110 18 -135 3z" style="fill: rgb(84, 3, 114);"/>
  </g>
</svg>